HIERARCHY
ROOT Hips
{
  OFFSET -183.335 85.8233 -1.3092
  CHANNELS 6 Xposition Yposition Zposition Zrotation Xrotation Yrotation
  JOINT RightUpLeg
  {
    OFFSET -8.9458 -8.66707 0.101652
    CHANNELS 3 Zrotation Xrotation Yrotation
    JOINT RightLeg
    {
      OFFSET 0 -44.4227 1.3727
      CHANNELS 3 Zrotation Xrotation Yrotation
      JOINT RightFoot
      {
        OFFSET 0.253549 -42.0924 -1.46059
        CHANNELS 3 Zrotation Xrotation Yrotation
        JOINT RightToes
        {
          OFFSET 0.04 -4.41509 8.4991
          CHANNELS 3 Zrotation Xrotation Yrotation
          End Site
          {
            OFFSET -0.08 -0.137448 9.77979
          }
        }
      }
    }
  }
  JOINT Spine
  {
    OFFSET 0 11.8905 0
    CHANNELS 3 Zrotation Xrotation Yrotation
    JOINT Spine1
    {
      OFFSET 0 25.6574 0.127663
      CHANNELS 3 Zrotation Xrotation Yrotation
      JOINT HEad
      {
        OFFSET 0 8.73416 0.011341
        CHANNELS 3 Zrotation Xrotation Yrotation
        End Site
        {
          OFFSET -0.29 12.7742 2.51395
        }
      }
      JOINT LeftShoulder1
      {
        OFFSET 8.99 -0.362252 -0.22
        CHANNELS 3 Zrotation Xrotation Yrotation
        JOINT LeftArm
        {
          OFFSET 10.2827 -0.00338 0.322123
          CHANNELS 3 Zrotation Xrotation Yrotation
          JOINT LeftForeArm
          {
            OFFSET 32.7669 0.099144 -1.42434
            CHANNELS 3 Zrotation Xrotation Yrotation
            JOINT LeftHand
            {
              OFFSET 27.5643 0.085362 1.02216
              CHANNELS 3 Zrotation Xrotation Yrotation
              End Site
              {
                OFFSET 16.7443 -0.6 1.50291
              }
            }
          }
        }
      }
      JOINT RightShoulder
      {
        OFFSET -8.99 -0.362252 -0.22
        CHANNELS 3 Zrotation Xrotation Yrotation
        JOINT RightArm
        {
          OFFSET -10.2827 -0.00338 0.322123
          CHANNELS 3 Zrotation Xrotation Yrotation
          JOINT RightForeArm
          {
            OFFSET -32.8971 0.099144 -1.42434
            CHANNELS 3 Zrotation Xrotation Yrotation
            JOINT RightHand
            {
              OFFSET -27.4921 0.085362 1.02216
              CHANNELS 3 Zrotation Xrotation Yrotation
              End Site
              {
                OFFSET -16.6312 -0.6 1.50291
              }
            }
          }
        }
      }
    }
  }
  JOINT LeftUpLeg
  {
    OFFSET 8.9458 -8.66707 0.101652
    CHANNELS 3 Zrotation Xrotation Yrotation
    JOINT LeftLeg
    {
      OFFSET 0 -44.4227 1.3727
      CHANNELS 3 Zrotation Xrotation Yrotation
      JOINT LeftFoot
      {
        OFFSET -0.253549 -42.0924 -1.46059
        CHANNELS 3 Zrotation Xrotation Yrotation
        JOINT LeftToes
        {
          OFFSET -0.04 -4.41509 8.4991
          CHANNELS 3 Zrotation Xrotation Yrotation
          End Site
          {
            OFFSET 0.08 -0.047448 9.77979
          }
        }
      }
    }
  }
}
MOTION
Frames:	22
Frame Time:	0.0166667
-122.741 91.6344 36.554 4.2281 -10.6875 61.8084 -10.3985 7.76906 11.0503 11.7204 24.0929 3.33941 7.83056 -12.9983 0.163811 -20.0085 -18.5786 23.351 2.93527 11.2082 1.64036 6.0915 22.3941 2.59943 -3.47299 -14.9746 29.0262 -1.59028e-015 1.59028e-015 3.18055e-015 -70.8313 -33.236 -25.1612 -17.4572 39.915 -95.3368 21.2246 6.69335 -13.443 27.1051 5.24901 15.8481 39.6768 -15.5942 55.2645 24.8696 48.0754 112.903 19.9546 1.1979 -49.662 23.9133 -6.51761 -3.21756 -13.7965 51.1379 12.8122 -15.6045 -0.25159 1.00142 -14.0295 -34.8038 -16.1428 
-123.399 91.9363 36.9562 5.26902 -10.4859 62.7574 -10.133 8.02624 11.3025 11.7638 24.9807 1.7932 7.66078 -12.1077 0.100767 -20.6468 -19.4655 22.9175 2.45054 11.4868 1.90044 5.79473 22.9445 2.90459 -3.79199 -15.5192 28.1598 -4.77083e-015 -5.56597e-015 6.36111e-015 -70.0757 -31.1307 -24.0522 -16.7035 39.2446 -97.0207 21.8893 6.66498 -13.0311 27.1295 5.04384 15.1359 40.3638 -16.8245 54.9513 25.5421 48.0171 112.095 20.8478 1.41286 -46.9558 23.936 -7.79792 -3.77304 -13.304 52.2499 11.1609 -17.6829 5.08803 1.93066 -15.4939 -35.5618 -19.8268 
-123.931 92.5383 37.1926 6.52987 -9.73609 63.7406 -10.7094 7.76819 11.5409 12.0072 26.5895 0.510438 8.78709 -11.4199 0.0960403 -20.2162 -18.8458 23.73 1.75254 11.7848 2.22556 5.09341 23.5081 3.37147 -4.00341 -15.8313 27.0845 -7.06225e-031 6.36111e-015 6.36111e-015 -68.2931 -28.2188 -22.2611 -17.6275 38.57 -96.7863 21.8014 6.42572 -14.3657 27.4317 4.82967 14.2485 40.2486 -17.57 52.8587 26.0975 47.6593 112.526 21.3906 1.64389 -44.9464 23.319 -9.60468 -4.09735 -13.0633 53.4036 9.89481 -20.2962 12.8817 3.56249 -16.9199 -35.5223 -24.5194 
-124.303 93.3308 37.2416 7.76115 -8.76152 64.3438 -11.894 6.87607 11.5021 12.459 28.7998 -0.157225 10.6333 -10.0495 0.0373406 -19.5488 -17.8383 25.0567 1.01647 12.0619 2.63702 4.19806 24.0239 4.07651 -4.15315 -15.8179 26.0129 1.59028e-015 -3.18055e-015 3.18055e-015 -65.859 -25.1026 -20.0499 -20.4773 37.907 -94.4958 20.4735 6.07754 -17.569 27.6546 4.6124 13.4045 39.9474 -17.8788 49.6387 26.7332 47.3644 113.584 21.3892 1.94473 -43.5955 22.5237 -11.3365 -3.95332 -13.2432 54.2662 8.9982 -23.2631 20.5978 5.64319 -16.9136 -33.8452 -27.7276 
-124.538 94.2406 37.1069 8.7356 -7.85859 64.1857 -13.2721 5.17408 10.8954 12.6861 31.4693 0.184528 12.6979 -6.69607 -0.273372 -19.8668 -18.2339 26.0313 0.346611 12.2786 3.13687 3.2948 24.4344 5.02445 -4.34082 -15.5327 25.2374 -3.18055e-015 3.18055e-015 6.36111e-015 -63.0926 -22.4574 -17.5858 -25.1321 36.9996 -90.4815 17.4418 5.97058 -22.18 27.549 4.41318 12.7836 39.9797 -17.7697 46.3076 27.5481 47.3452 114.468 20.6417 2.43903 -42.5777 21.9122 -12.6075 -3.20304 -13.6206 54.6796 7.61488 -25.9078 25.6639 7.45992 -15.2787 -30.9929 -28.0707 
-124.686 95.2005 36.8239 9.32914 -7.17572 63.1506 -14.4534 2.6178 9.58373 12.0391 34.3186 1.69115 15.051 -0.185207 -1.11088 -22.5739 -22.0991 26.3246 -0.202663 12.402 3.69988 2.47709 24.6901 6.17486 -4.64628 -15.1146 24.9262 1.59028e-015 3.57812e-015 -0 -60.1759 -20.7919 -15.0163 -30.9681 35.5656 -85.494 12.615 6.57005 -27.147 27.0496 4.22415 12.3717 40.489 -17.149 43.7179 28.3591 47.4464 114.765 19.0425 3.22776 -41.4795 21.635 -13.2977 -1.9995 -13.8822 54.4443 5.1674 -27.3656 27.0923 8.24657 -13.0339 -27.9293 -26.3044 
-124.798 96.0961 36.4528 9.55456 -6.73432 61.429 -15.2123 -0.541122 7.7225 9.98283 36.8789 3.97654 18.6834 9.63476 -2.89002 -28.4512 -30.2418 26.6956 -0.616874 12.4241 4.26371 1.78742 24.7759 7.39766 -5.09356 -14.7003 25.1181 -4.41391e-032 1.59028e-015 1.59028e-015 -57.0988 -20.4582 -12.4446 -36.9145 33.5925 -80.4893 6.53222 8.0592 -31.1833 26.2127 4.03516 12.1003 41.3614 -15.9123 42.3037 28.7442 47.3266 114.558 16.7001 4.29466 -39.9629 21.6907 -13.4324 -0.736567 -13.8379 53.3501 2.34641 -27.1842 25.7406 7.86647 -11.1634 -25.4834 -23.8976 
-124.914 96.785 36.0623 9.54118 -6.50566 59.3961 -15.5145 -3.8071 5.78179 6.51701 38.6982 6.32187 24.6672 21.055 -6.22557 -36.1359 -40.7025 28.297 -0.897835 12.3642 4.73332 1.25927 24.7143 8.47067 -5.62885 -14.3778 25.804 1.59028e-015 5.1684e-015 -6.36111e-015 -53.6576 -21.681 -9.85076 -41.8796 31.4331 -76.2031 0.204637 10.0721 -33.4791 25.205 3.87771 12.0067 42.3753 -14.1407 42.1374 28.3535 46.7909 114.097 13.9178 5.48195 -37.9981 21.9959 -13.0876 0.12626 -13.4942 51.3053 0.903212 -25.4625 23.3755 6.81782 -10.1554 -24.2845 -21.8724 
-125.031 97.1899 35.6807 9.44276 -6.49196 57.4422 -15.346 -6.72731 4.2841 2.27457 39.7318 8.7568 32.4739 30.8337 -11.0944 -42.3538 -49.758 31.307 -0.939091 12.2471 5.01241 0.939247 24.5406 9.21211 -6.15341 -14.1843 26.8892 -1.59028e-015 -5.1684e-015 -3.18055e-015 -49.6084 -24.4506 -7.17986 -45.1992 29.5641 -72.8093 -5.28758 11.9614 -34.2085 24.2642 3.79219 12.1436 43.2917 -12.0795 43.0291 27.1839 45.9433 113.615 11.0728 6.56013 -36.1256 22.4455 -12.338 0.208291 -13.0031 48.3394 2.41872 -22.5062 21.4176 5.60891 -9.94367 -24.3989 -20.3474 
-125.107 97.3082 35.2951 9.36761 -6.70478 55.8114 -14.7084 -9.13307 3.61613 -1.80522 40.2421 11.9181 39.846 36.3778 -15.8192 -45.3284 -55.3134 34.7897 -0.598993 12.0999 5.06649 0.866359 24.2949 9.57791 -6.60307 -14.1092 28.1853 -1.59028e-015 -3.97569e-015 3.18055e-015 -44.8428 -28.5149 -4.48697 -46.7792 28.2246 -69.9533 -9.05986 13.2578 -34.2415 23.5903 3.79444 12.4921 43.9163 -10.0261 44.6388 25.5646 45.0984 113.298 8.53763 7.35652 -35.287 22.9517 -11.2516 -0.679869 -12.5406 44.6356 7.15928 -18.643 20.0197 4.38271 -9.78983 -24.8367 -18.2804 
-125.112 97.1144 34.9167 9.38187 -7.10502 54.5492 -13.7582 -10.993 3.98281 -4.89071 40.3584 15.7192 44.4909 37.5259 -18.3071 -46.1716 -57.7501 37.0699 0.0656363 11.9514 4.94227 1.01994 24.0311 9.62082 -6.99889 -14.12 29.5404 1.59028e-015 3.18055e-015 -6.36111e-015 -39.483 -33.5491 -1.99455 -47.0233 27.227 -66.9423 -10.5518 13.7818 -34.3513 23.2501 3.89037 13.0454 44.1146 -8.2879 46.6273 23.8687 44.512 113.236 6.63655 7.82796 -36.0643 23.4867 -9.93953 -2.4402 -12.2065 40.6178 13.9239 -14.6251 18.3596 3.19525 -8.63187 -23.7929 -14.2464 
-125.04 96.5828 34.6062 9.50246 -7.62889 53.6147 -12.7082 -12.1901 5.27903 -6.61069 40.0036 19.2949 45.7594 35.7475 -18.121 -46.4439 -58.1487 37.1564 0.825658 11.8283 4.69407 1.34647 23.8113 9.37273 -7.46956 -14.2121 30.9488 3.18055e-015 3.18055e-015 3.18055e-015 -33.9411 -39.2788 -0.101324 -46.6399 25.9076 -62.8841 -9.74954 13.5371 -34.6667 23.1499 4.08485 13.8633 43.8736 -7.17142 48.8191 22.3625 44.2578 113.236 5.45963 8.04829 -37.9952 24.0768 -8.53851 -4.70367 -11.9488 36.7615 20.8785 -11.5919 16.027 2.2798 -6.33064 -20.0392 -8.35564 
-124.921 95.7431 34.4598 9.73896 -8.17745 53.0703 -11.7699 -12.5331 7.01093 -7.16421 39.1152 21.7426 44.4542 32.7996 -16.3436 -47.2437 -57.6934 34.8336 1.31812 11.7522 4.33489 1.78979 23.6888 8.74077 -8.18397 -14.4204 32.5123 -0 -3.18055e-015 -0 -29.4075 -44.099 0.193972 -45.5635 22.0218 -58.0645 -7.48601 12.7524 -34.6817 23.0956 4.36766 15.0045 43.4158 -6.94105 51.2578 21.3533 44.4209 112.772 4.73212 8.16984 -39.8673 24.6794 -7.18948 -6.96182 -11.5754 33.3833 26.4688 -10.1029 13.6747 1.77852 -4.03107 -14.6018 -2.49249 
-124.789 94.6551 34.5396 10.0698 -8.69874 53.2273 -11.0509 -11.9851 8.48093 -6.97842 38.1582 22.6763 41.0378 29.5326 -13.7598 -49.2413 -57.0616 29.8403 1.46391 11.7289 3.77198 2.36529 23.6728 7.50429 -9.10194 -14.7438 34.3018 8.82781e-032 -7.95139e-016 6.36111e-015 -28.3395 -41.9622 -3.39233 -41.8268 9.21682 -56.2728 -5.4601 11.986 -33.6239 22.9475 4.70847 16.4367 43.0989 -7.6807 53.9991 21.1553 45.1393 111.435 4.08604 8.3352 -40.7374 25.2539 -6.21471 -8.72223 -10.9227 30.8925 29.7059 -9.76936 12.176 1.59819 -2.70448 -10.3624 1.82911 
-124.694 93.4501 34.8455 10.4989 -9.14187 54.6223 -10.6031 -10.7333 9.1818 -6.13773 38.1471 22.2014 34.8759 25.085 -10.1759 -50.8477 -55.0842 23.1062 1.46532 11.7479 2.8649 3.11857 23.7093 5.42563 -9.82716 -15.0505 36.2425 -1.59028e-015 1.59028e-015 -6.36111e-015 -28.462 -35.9109 -9.8449 -38.1271 -11.0802 -53.6901 -4.75793 11.6768 -32.2405 22.8249 5.0783 17.975 43.0264 -9.20665 56.7883 21.8591 46.3406 109.487 3.48238 8.53878 -40.568 25.7679 -6.03732 -9.63259 -9.96382 29.5971 30.1263 -9.87749 11.8816 1.59347 -2.45062 -9.44887 4.2653 
-124.712 92.2467 35.3665 11.1343 -9.38786 57.8465 -10.5777 -8.94539 8.98053 -4.16446 39.7274 20.3055 26.2566 18.2388 -6.00334 -48.5829 -50.1453 17.5749 1.48131 11.7995 1.53299 4.03081 23.7392 2.39989 -9.86544 -15.1518 38.077 1.59028e-015 -6.36111e-015 6.36111e-015 -27.3843 -28.6423 -18.0179 -34.1456 -35.348 -48.6392 -5.75551 11.9155 -30.8561 23.0995 5.46115 19.2643 42.8221 -11.2297 59.0602 23.2759 47.6745 107.88 3.21405 8.64603 -40.0292 26.1639 -7.07728 -9.56579 -8.75506 29.6081 27.6346 -10.1295 12.5976 1.69518 -2.96406 -11.7829 4.82644 
-124.909 91.0605 36.1243 12.1363 -9.24521 63.2251 -11.2081 -6.60374 8.06851 -0.372241 42.2825 16.2848 17.7944 10.3584 -2.8607 -43.2779 -43.6011 14.1014 1.39999 11.9183 -0.153253 4.99617 23.8116 -1.4251 -8.98846 -15.0745 39.3978 -4.41391e-031 3.97569e-015 6.36111e-015 -25.1359 -25.012 -27.193 -25.4656 -55.1697 -36.6727 -7.5073 12.3677 -29.653 24.017 5.81354 19.9055 41.9953 -13.5878 60.3663 24.9825 48.8104 107.717 3.47496 8.56891 -39.8771 26.278 -9.64134 -8.53886 -7.19424 30.9076 22.1954 -10.8569 14.1823 1.96411 -3.98895 -15.8945 3.40526 
-125.229 89.9024 37.0543 13.457 -8.64939 70.4339 -12.359 -3.77574 6.96306 5.37929 44.6115 9.70343 11.9784 4.39687 -1.35507 -39.3615 -38.9367 11.3133 1.32846 12.1806 -1.99887 5.95296 24.09 -5.56651 -7.32551 -15.239 39.7237 1.59028e-015 -5.56597e-015 -0 -23.737 -25.3762 -36.2468 -9.1177 -64.8241 -17.0564 -9.48371 12.8828 -28.8325 25.2968 6.0243 19.7232 40.6003 -16.3164 60.7361 26.433 49.7671 109.619 4.07305 8.34738 -40.5648 25.9456 -13.6638 -6.55819 -4.9119 33.2069 13.8355 -12.7677 16.8726 2.61319 -5.45076 -20.2558 -0.170571 
-125.484 88.8365 37.9815 14.8493 -7.72853 78.4222 -13.5468 -0.734592 6.29014 12.1856 46.0225 1.75887 9.43257 1.20016 -0.844666 -38.3731 -37.3447 8.91444 1.52142 12.6074 -3.66986 6.90709 24.6934 -9.22792 -5.27765 -16.244 38.6036 -1.59028e-015 2.38542e-015 -3.18055e-015 -23.0722 -25.7709 -43.1648 0.999537 -67.6649 -5.43896 -13.4284 14.0602 -28.9967 26.1759 5.97512 18.9296 39.4819 -19.6028 60.6738 27.2659 50.9118 113.303 4.59571 8.0899 -42.2788 25.1342 -18.499 -3.83642 -1.66687 35.7958 3.27261 -16.6936 20.8613 4.02245 -7.25796 -23.6396 -5.87208 
-125.5 87.8909 38.7063 16.0921 -6.70812 85.8689 -14.4308 2.14827 6.28707 18.5529 46.6034 -5.37536 9.5222 -0.357096 -0.732802 -38.9928 -37.518 7.42294 2.02085 13.1098 -4.75723 7.79164 25.5556 -11.5592 -3.38022 -18.2923 35.767 1.59028e-015 0 -3.18055e-015 -22.2077 -24.3587 -46.6867 -5.84375 -67.7921 -12.9473 -20.6621 16.4938 -30.4467 25.9004 5.65735 18.002 39.7767 -23.5995 60.9459 27.5389 52.5454 117.552 4.73626 7.89582 -45.0182 24.0439 -23.2286 -1.26235 1.89951 37.9626 -7.38365 -23.034 25.7438 6.60797 -8.98335 -25.1612 -12.8989 
-125.232 87.0623 39.0757 17.1469 -5.77631 91.7555 -15.0311 4.64572 6.74881 23.3616 46.8097 -10.1289 10.9666 -1.3174 -0.740105 -39.8041 -38.1099 6.91561 2.6471 13.5463 -4.96464 8.33307 26.4711 -11.9829 -2.02008 -20.7295 31.2724 -7.95139e-016 6.75868e-015 1.59028e-015 -22.8631 -22.6748 -47.8423 -21.23 -59.7815 -31.5925 -26.9072 19.0864 -32.881 24.1875 5.18058 17.414 42.1792 -28.1645 62.3332 27.7667 54.4837 120.419 4.43649 7.83549 -48.3381 23.009 -27.053 -0.00375682 4.38627 39.5314 -15.4111 -30.6898 30.3201 10.1921 -9.915 -24.737 -19.2498 
-124.779 86.3645 39.0295 18.098 -5.02056 95.5544 -15.5396 6.69257 7.4474 26.1765 46.9985 -12.1602 12.5474 -1.93228 -0.765264 -40.397 -38.6097 6.81472 3.1438 13.8236 -4.2161 8.20079 27.2538 -10.3398 -1.13919 -22.3698 25.5932 8.27607e-032 2.98177e-015 -1.59028e-015 -28.5199 -24.1693 -48.7784 -27.7781 -38.9567 -43.1917 -26.352 19.5989 -35.6078 21.2075 4.64828 17.4205 47.0802 -32.9806 65.7687 29.3218 56.3799 118.931 3.73584 7.99479 -51.0216 22.3168 -29.5404 -0.496244 4.88339 40.8432 -19.1896 -36.5808 33.1386 13.2322 -9.89058 -23.3954 -23.0125 
